<?xml version="1.0" encoding="UTF-8"?>
<svg version="1.1" xmlns="http://www.w3.org/2000/svg" width="320" height="314">
<path d="M0 0 C105.6 0 211.2 0 320 0 C320 103.62 320 207.24 320 314 C214.4 314 108.8 314 0 314 C0 210.38 0 106.76 0 0 Z " fill="#242323" transform="translate(0,0)"/>
<path d="M0 0 C6.35264382 1.00304902 9.74038149 6.95935881 13.36181641 11.83251953 C16.98831952 16.83234381 20.49956506 21.91148702 24 27 C24.495 27.71768555 24.99 28.43537109 25.5 29.17480469 C27.85130367 32.58450769 30.19745758 35.9976925 32.5390625 39.4140625 C36.9091612 45.78726221 41.33511747 52.10463519 45.9375 58.3125 C49.54758107 63.25553408 52.76193485 68.37316258 55.93359375 73.60546875 C58.08388277 77.13779609 60.27297819 80.64071925 62.5 84.125 C62.87181396 84.70733398 63.24362793 85.28966797 63.62670898 85.88964844 C66.68746785 90.62880214 70.00786514 95.14108031 73.46875 99.59765625 C75.07931523 102.12443589 75.62135689 104.04973908 76 107 C77.485 107.495 77.485 107.495 79 108 C80.60423298 110.1579328 82.06287849 112.29720678 83.5 114.5625 C84.38689225 115.92651573 85.27495556 117.28977059 86.1640625 118.65234375 C86.62586914 119.36374512 87.08767578 120.07514648 87.56347656 120.80810547 C89.94952211 124.44881196 92.40922798 128.0380043 94.875 131.625 C95.32681641 132.28701416 95.77863281 132.94902832 96.24414062 133.63110352 C98.18804753 136.46113936 100.14349582 139.17538378 102.3203125 141.8359375 C104 144 104 144 104 146 C105.92790142 145.80075093 105.92790142 145.80075093 108 145 C109.38005835 143.27791515 109.38005835 143.27791515 110.5 141 C113.25490821 136.13230505 116.31242729 131.60507267 119.5625 127.0625 C123.94424113 120.92038477 128.25582668 114.73802472 132.5 108.5 C136.68642692 102.34889851 140.93383789 96.24820007 145.25 90.1875 C149.15604013 84.69346968 152.89350183 79.13702552 156.50366211 73.44360352 C164.10462696 61.50212771 172.19589666 49.90509523 180.76098633 38.63720703 C183.78150767 34.65622497 186.68131168 30.62664081 189.5 26.5 C192.99525605 21.39449802 196.61159162 16.39599861 200.3125 11.4375 C201.06853516 10.41849609 201.06853516 10.41849609 201.83984375 9.37890625 C206.97218995 2.54492655 206.97218995 2.54492655 210 0 C214.3 0.3 214.3 0.3 216 2 C216.23757608 6.22213041 216.13819161 10.45959045 216.125 14.6875 C216.12886719 15.81478516 216.13273438 16.94207031 216.13671875 18.10351562 C216.12997589 24.41820028 216.0230993 30.71795136 215.77294922 37.02807617 C214.90968313 58.88341794 214.84574614 80.71770227 214.86962891 102.58813477 C214.87535072 107.89409309 214.87201444 113.20000107 214.86605644 118.5059576 C214.86239962 122.6802049 214.86361217 126.85444074 214.86618423 131.02868843 C214.86683808 132.98297698 214.86608105 134.93726667 214.86370468 136.89155388 C214.85201603 149.18270754 215.1609859 161.42246039 215.76608276 173.6990509 C216.13962301 181.54007943 216.22179886 189.38398831 216.24023438 197.23291016 C216.25027518 199.82092749 216.28165217 202.40824981 216.3125 204.99609375 C216.31900434 206.6588496 216.32426477 208.32161091 216.328125 209.984375 C216.3466452 211.13253693 216.3466452 211.13253693 216.36553955 212.30389404 C216.35352315 215.13210335 216.29238584 217.43800261 214.97192383 219.97607422 C211.8164611 221.61455517 208.59320306 221.42678432 205.12109375 221.3984375 C203.96928368 221.40274277 203.96928368 221.40274277 202.79420471 221.40713501 C201.17277284 221.40917477 199.55131632 221.403651 197.92993164 221.39111328 C195.44296554 221.37503533 192.95761913 221.39097505 190.47070312 221.41015625 C188.89582974 221.40817423 187.32095736 221.40433141 185.74609375 221.3984375 C184.62732094 221.40754654 184.62732094 221.40754654 183.48594666 221.4168396 C181.39233398 221.38818359 181.39233398 221.38818359 178 221 C175.93906918 217.90860376 175.74219058 217.19191381 175.68115234 213.68286133 C175.66128769 212.80074982 175.64142303 211.91863831 175.62095642 211.00979614 C175.60362206 209.56055252 175.60362206 209.56055252 175.5859375 208.08203125 C175.56652603 207.06060028 175.54711456 206.03916931 175.52711487 204.98678589 C175.46613504 201.5954439 175.42013367 198.20408728 175.375 194.8125 C175.33697835 192.45743315 175.29864374 190.10237134 175.26000977 187.74731445 C174.85814673 161.49987009 174.90016738 135.24964065 175 109 C171.62247483 110.56906821 170.15969764 111.8033253 168.1953125 115 C167.69386719 115.80566406 167.19242188 116.61132812 166.67578125 117.44140625 C166.16402344 118.28574219 165.65226563 119.13007813 165.125 120 C164.62097656 120.81339844 164.11695313 121.62679687 163.59765625 122.46484375 C161.0375078 126.60953421 158.53238463 130.78521923 156.04296875 134.97265625 C152.35146312 141.1408485 148.38151375 147.1210801 144.41601562 153.11523438 C143.85978516 153.96279297 143.30355469 154.81035156 142.73046875 155.68359375 C142.22926514 156.44212646 141.72806152 157.20065918 141.21166992 157.98217773 C139.85272532 160.07969444 139.85272532 160.07969444 139 163 C138.34 163 137.68 163 137 163 C136.73445312 163.721875 136.46890625 164.44375 136.1953125 165.1875 C134.98654884 168.03164978 133.5676441 170.41773366 131.875 173 C129.23694479 177.06314895 126.68587212 181.16206031 124.1875 185.3125 C121.1598578 190.21327492 118.06120453 195.05497021 114.8125 199.8125 C114.40862061 200.42971924 114.00474121 201.04693848 113.58862305 201.68286133 C111.81245619 204.22890628 110.55510634 205.81138899 107.57421875 206.82421875 C100.90722538 204.68956685 96.8938495 196.09120431 93.25 190.5 C92.73123291 189.71391357 92.21246582 188.92782715 91.67797852 188.11791992 C90.11429348 185.74811304 88.55634861 183.3746298 87 181 C82.02010509 173.4082342 76.98920567 165.90652364 71.5625 158.625 C67.16152665 152.71571911 63.10451659 146.642348 59.140625 140.43310547 C55.86632872 135.3117402 52.5049125 130.25993963 49.0625 125.25 C48.61390625 124.59459229 48.1653125 123.93918457 47.703125 123.26391602 C44.05495236 117.97598304 44.05495236 117.97598304 40 113 C39.34 113 38.68 113 38 113 C37.99635437 114.29403748 37.99270874 115.58807495 37.98895264 116.92132568 C37.95204165 129.10519931 37.89431158 141.28881928 37.81609726 153.47249985 C37.77655637 159.73656018 37.74440025 166.00047854 37.72900391 172.26464844 C37.71388102 178.30780757 37.67951293 184.35057655 37.63169098 190.39356232 C37.61683209 192.70124169 37.60895642 195.00897674 37.60811615 197.3167038 C37.60575835 200.54456887 37.57877347 203.77134528 37.54589844 206.99902344 C37.55344398 208.43616699 37.55344398 208.43616699 37.56114197 209.90234375 C37.45934298 216.34541265 37.45934298 216.34541265 35.18061829 219.5927124 C32.0479782 221.61439844 29.1070478 221.57351443 25.49609375 221.53125 C24.77639908 221.5350769 24.05670441 221.53890381 23.31520081 221.54284668 C21.79809159 221.54556196 20.28093526 221.53822745 18.76391602 221.52148438 C16.44116129 221.50003381 14.12148798 221.52131075 11.79882812 221.546875 C10.32290984 221.54423226 8.84699348 221.5391084 7.37109375 221.53125 C6.67729111 221.53934692 5.98348846 221.54744385 5.2686615 221.55578613 C2.10684298 221.49422116 0.42034888 221.39051665 -1.94018555 219.19750977 C-3.62260684 215.70903382 -3.34652247 212.22338818 -3.25 208.4375 C-3.2354628 207.51384644 -3.2209256 206.59019287 -3.20594788 205.6385498 C-3.11187871 200.12276674 -2.99499555 194.60905804 -2.8210535 189.09515476 C-2.04563253 164.49937498 -1.92795085 139.91766686 -1.97265625 115.3125 C-1.97535856 113.66998357 -1.97804535 112.02746712 -1.98071671 110.38495064 C-2.00507322 95.97219386 -2.04104432 81.55946596 -2.08749622 67.1467638 C-2.1149135 58.63762954 -2.13672037 50.12852445 -2.14750665 41.61935139 C-2.15401755 36.83066973 -2.1694924 32.04212986 -2.19182408 27.25349712 C-2.20352041 24.30450122 -2.20691893 21.35553986 -2.20792198 18.40652275 C-2.21109952 16.38810442 -2.22428305 14.36970965 -2.23773193 12.35133362 C-2.23642776 11.15564255 -2.2351236 9.95995148 -2.23377991 8.72802734 C-2.23692231 7.68786469 -2.24006472 6.64770203 -2.24330235 5.57601929 C-2 3 -2 3 0 0 Z " fill="#FC841B" transform="translate(58,49)"/>
</svg>
